<svg
   width="20"
   height="20"
   viewBox="0 0 2.4805551 2.115684"
   version="1.1"
   id="svg8">
	<g
	   id="layer1"
	   transform="translate(-63.563735,-92.96225)">
		<path
		   id="path4529"
		   d="m 63.563735,94.79226 v -0.285674 h 0.282845 0.282846 v 0.285674 0.285674 H 63.84658 63.563735 Z m 0.395984,0 V 94.676293 H 63.84658 63.733442 v 0.112196 c 0,0.06171 0.0017,0.113893 0.0038,0.115967 0.0021,0.0021 0.05299,0.0038 0.113138,0.0038 h 0.109367 z m 1.78254,0.251271 c -0.07066,-0.01388 -0.147078,-0.07244 -0.178417,-0.136718 l -0.01586,-0.03253 h -0.545229 -0.545228 v -0.08485 -0.08485 l 0.547306,-2.1e-5 0.547307,-2.1e-5 0.01093,-0.02685 c 0.02297,-0.05643 0.104851,-0.120978 0.173554,-0.136816 0.114483,-0.02639 0.237548,0.0355 0.289768,0.145721 0.017,0.03589 0.0179,0.04119 0.0179,0.105669 0,0.06522 -7.27e-4,0.06937 -0.01853,0.105775 -0.05343,0.10924 -0.168199,0.168139 -0.283498,0.145496 z m 0.0867,-0.174985 c 0.03104,-0.01538 0.04436,-0.03545 0.04733,-0.07131 0.0031,-0.037 -0.01225,-0.06508 -0.04448,-0.08152 -0.02845,-0.01451 -0.04891,-0.01406 -0.07878,0.0017 -0.03254,0.01721 -0.04669,0.04328 -0.04388,0.08087 0.0026,0.03451 0.01598,0.05468 0.04664,0.07018 0.02847,0.0144 0.0442,0.01441 0.07317,6.4e-5 z m -2.265222,-0.851279 v -0.285674 h 0.282845 0.282846 v 0.285674 0.285674 H 63.84658 63.563735 Z m 0.395984,-1.28e-4 v -0.116086 l -0.111724,0.0015 -0.111724,0.0015 -0.0015,0.114552 -0.0015,0.114553 h 0.113253 0.113256 v -0.11608 z m 0.996208,0.248557 c -0.06783,-0.01824 -0.130164,-0.06768 -0.161907,-0.128431 l -0.01688,-0.0323 -0.159808,-1.4e-5 -0.159808,-1.3e-5 v -0.08477 -0.08477 l 0.159226,-0.0015 0.159227,-0.0015 0.01755,-0.03282 c 0.0097,-0.01805 0.03142,-0.04674 0.04836,-0.06376 0.12109,-0.121569 0.324838,-0.08939 0.406516,0.06421 l 0.01872,0.0352 h 0.381661 0.381661 l -0.0016,0.08344 -0.0016,0.08344 -0.382307,0.0014 -0.382307,0.0015 -0.01368,0.02945 c -0.04732,0.101904 -0.180465,0.161514 -0.293102,0.131224 z m 0.09744,-0.168472 c 0.05941,-0.02482 0.07177,-0.103833 0.0226,-0.14437 -0.02936,-0.0242 -0.05768,-0.02764 -0.09108,-0.01107 -0.05093,0.02526 -0.06525,0.08379 -0.03138,0.128195 0.02459,0.03224 0.06289,0.0427 0.09986,0.02725 z M 63.563741,93.245095 V 92.96225 h 0.282845 0.282846 v 0.282845 0.282846 H 63.84658 63.563735 Z m 0.395984,0 V 93.131956 H 63.84658 63.733442 v 0.113138 0.113139 h 0.113138 0.113139 z m 1.294288,0.243639 c -0.01774,-0.0057 -0.04345,-0.01687 -0.05713,-0.02489 -0.03366,-0.01973 -0.08487,-0.07615 -0.09793,-0.107904 l -0.01067,-0.02595 -0.315373,-2.1e-5 -0.315373,-2.2e-5 v -0.08485 -0.08485 h 0.313295 0.313295 l 0.0155,-0.03167 c 0.03389,-0.06926 0.110561,-0.124906 0.190691,-0.138389 0.10448,-0.01758 0.22064,0.04223 0.267104,0.137536 l 0.01586,0.03253 h 0.228592 0.228593 l -0.0016,0.08344 -0.0016,0.08344 -0.227393,0.0015 -0.227394,0.0015 -0.01769,0.03318 c -0.0574,0.107694 -0.18717,0.161818 -0.30084,0.125474 z m 0.11417,-0.168693 c 0.01083,-0.0054 0.02569,-0.0188 0.03303,-0.02969 0.01114,-0.01653 0.01296,-0.02519 0.01106,-0.05239 -0.002,-0.02783 -0.0051,-0.03549 -0.02152,-0.05244 -0.03685,-0.03802 -0.09013,-0.03787 -0.123686,3.54e-4 -0.02045,0.02329 -0.02572,0.04045 -0.02167,0.07061 0.0078,0.05816 0.06973,0.09021 0.122783,0.06356 z"
		   style="fill:currentColor;stroke-width:0.02138047"/>
	</g>
</svg>
