<?xml version="1.0" encoding="UTF-8" standalone="no"?>
<!-- Created with Inkscape (http://www.inkscape.org/) -->

<svg
   xmlns:dc="http://purl.org/dc/elements/1.1/"
   xmlns:cc="http://creativecommons.org/ns#"
   xmlns:rdf="http://www.w3.org/1999/02/22-rdf-syntax-ns#"
   xmlns:svg="http://www.w3.org/2000/svg"
   xmlns="http://www.w3.org/2000/svg"
   xmlns:sodipodi="http://sodipodi.sourceforge.net/DTD/sodipodi-0.dtd"
   xmlns:inkscape="http://www.inkscape.org/namespaces/inkscape"
   width="18.520838mm"
   height="5.665195mm"
   viewBox="0 0 18.520838 5.665195"
   version="1.1"
   id="svg8"
   inkscape:version="0.92.4 (5da689c313, 2019-01-14)"
   sodipodi:docname="queue.svg">
  <defs
     id="defs2" />
  <sodipodi:namedview
     id="base"
     pagecolor="#ffffff"
     bordercolor="#666666"
     borderopacity="1.0"
     inkscape:pageopacity="0.0"
     inkscape:pageshadow="2"
     inkscape:zoom="11.2"
     inkscape:cx="58.543203"
     inkscape:cy="1.8913817"
     inkscape:document-units="mm"
     inkscape:current-layer="layer1"
     showgrid="false"
     fit-margin-top="0"
     fit-margin-left="0"
     fit-margin-right="0"
     fit-margin-bottom="0"
     inkscape:window-width="2400"
     inkscape:window-height="1271"
     inkscape:window-x="-9"
     inkscape:window-y="-9"
     inkscape:window-maximized="1" />
  <metadata
     id="metadata5">
    <rdf:RDF>
      <cc:Work
         rdf:about="">
        <dc:format>image/svg+xml</dc:format>
        <dc:type
           rdf:resource="http://purl.org/dc/dcmitype/StillImage" />
        <dc:title></dc:title>
      </cc:Work>
    </rdf:RDF>
  </metadata>
  <g
     inkscape:label="Layer 1"
     inkscape:groupmode="layer"
     id="layer1"
     transform="translate(-49.703867,-69.649543)">
    <path
       id="path815"
       d="m 50.085187,75.246806 c -0.151845,-0.0943 -0.259239,-0.218599 -0.32512,-0.376259 -0.04874,-0.116639 -0.0562,-0.441981 -0.0562,-2.447599 v -2.313081 l 0.09028,-0.154043 c 0.06019,-0.102713 0.142663,-0.179406 0.247518,-0.230161 l 0.157242,-0.07612 h 8.103737 8.103764 l 0.123455,0.108384 c 0.1524,0.133813 0.406162,0.500539 0.74168,1.071864 0.295513,0.503164 0.953161,1.721851 0.953161,1.766277 0,0.01654 -0.141366,0.271386 -0.314139,0.566346 -0.675958,1.153932 -1.080162,1.767168 -1.328526,2.015535 l -0.13679,0.136789 -8.125565,-1.45e-4 c -7.863417,-1.46e-4 -8.129059,-0.0024 -8.234495,-0.0678 z m 16.36858,-0.531268 c 0.276198,-0.361637 1.298839,-2.042107 1.298839,-2.134317 0,-0.09449 -0.982424,-1.83085 -1.314688,-2.323634 l -0.14097,-0.209053 -8.045264,0.0093 c -7.91644,0.0091 -8.046085,0.01045 -8.096806,0.07981 -0.04318,0.05905 -0.05154,0.428623 -0.05154,2.276425 0,1.248312 0.01455,2.243923 0.03328,2.293448 0.01826,0.04814 0.06035,0.114604 0.09345,0.147706 0.05575,0.05574 0.653282,0.05951 8.072596,0.05103 l 8.01243,-0.0092 z M 50.825808,74.330511 c -0.05204,-0.01934 -0.113321,-0.07621 -0.136181,-0.126375 -0.02924,-0.06416 -0.04157,-0.574823 -0.04157,-1.721676 v -1.630457 l 0.08763,-0.101894 0.08763,-0.101891 2.118546,-0.01066 c 1.165172,-0.0059 2.172546,-7.94e-4 2.23856,0.01111 0.06604,0.01199 0.151818,0.05355 0.190659,0.09238 0.06792,0.06792 0.07062,0.135294 0.07062,1.771798 0,1.683218 0,1.701924 -0.07644,1.770375 -0.07318,0.06625 -0.168778,0.06946 -2.260627,0.07582 -1.336119,0.0041 -2.220939,-0.007 -2.27883,-0.02851 z m 4.107472,-1.559988 c 0,-0.834877 -0.0095,-1.04947 -0.0454,-1.027436 -0.02487,0.01532 -0.404919,0.307695 -0.844313,0.649722 -0.957289,0.745104 -0.973296,0.755957 -1.070954,0.724969 -0.0417,-0.01323 -0.406109,-0.280464 -0.809784,-0.593839 -0.403701,-0.313372 -0.795258,-0.616336 -0.870161,-0.673248 l -0.136181,-0.103476 v 1.039299 1.039297 h 1.88841 1.888385 z m -0.890032,-1.017003 0.725963,-0.560573 -0.880321,-0.0097 c -0.484161,-0.0053 -1.270344,-0.0053 -1.74707,0 l -0.866749,0.0097 0.87413,0.679246 0.874104,0.679249 0.146976,-0.118676 c 0.08083,-0.06527 0.473657,-0.370932 0.872967,-0.679246 z m 2.055415,2.577867 c -0.185367,-0.07504 -0.182483,-0.04666 -0.1837,-1.80214 0,-1.151877 0.01111,-1.668616 0.04016,-1.732251 0.02275,-0.04988 0.09051,-0.107847 0.15068,-0.128813 0.155469,-0.0542 4.2595,-0.05233 4.415393,0.0021 0.06331,0.02207 0.131127,0.07003 0.15068,0.106559 0.0217,0.04059 0.03553,0.72191 0.03553,1.751848 0,1.667187 0,1.686171 -0.07641,1.754603 -0.07318,0.06624 -0.169201,0.06949 -2.260626,0.07639 -1.352788,0.0045 -2.217526,-0.0063 -2.271713,-0.02821 z m 4.100354,-1.560864 c 0,-0.834919 -0.0095,-1.049457 -0.0454,-1.027356 -0.02487,0.01537 -0.413097,0.313555 -0.862491,0.662646 -0.931492,0.723583 -0.978085,0.752896 -1.097201,0.690475 -0.04567,-0.02394 -0.442568,-0.321609 -0.881988,-0.661503 -0.43942,-0.339894 -0.819362,-0.633706 -0.844339,-0.652915 -0.03606,-0.02775 -0.04538,0.178541 -0.04538,1.004507 v 1.039434 h 1.888384 1.888411 z m -0.784278,-1.100699 0.613886,-0.476877 -0.877173,-0.0097 c -0.482441,-0.0053 -1.267116,-0.0053 -1.743763,0 l -0.866589,0.0097 0.870664,0.6798 0.870691,0.679796 0.259212,-0.202919 c 0.142558,-0.111607 0.535437,-0.417516 0.873072,-0.6798 z m 1.928204,2.659243 c -0.165629,-0.09163 -0.163486,-0.06755 -0.162269,-1.826628 0,-1.802532 -0.0034,-1.759291 0.194839,-1.834637 0.141737,-0.0539 4.256352,-0.05166 4.411398,0.0024 0.06334,0.02207 0.131128,0.07003 0.15068,0.106559 0.0217,0.04056 0.03556,0.716153 0.03556,1.735293 0,1.588929 -0.0034,1.672979 -0.0694,1.754603 l -0.06943,0.08573 -2.209376,0.0084 c -1.561412,0.0059 -2.230676,-0.0034 -2.282005,-0.03175 z m 4.121785,-1.558544 c 0,-0.834708 -0.0095,-1.049534 -0.04538,-1.02775 -0.02487,0.01516 -0.413094,0.313354 -0.862489,0.66268 -0.931148,0.723781 -0.978006,0.753296 -1.097227,0.690835 -0.04567,-0.02394 -0.442569,-0.321609 -0.881962,-0.661503 -0.43942,-0.339894 -0.819388,-0.633706 -0.844338,-0.652915 -0.03606,-0.02775 -0.0454,0.178541 -0.0454,1.004507 v 1.039434 h 1.888411 1.888384 z m -1.047221,-1.587299 c -0.482626,-0.0053 -1.268862,-0.0053 -1.747229,0 l -0.869738,0.0097 0.872649,0.677947 0.872648,0.677947 0.87458,-0.677947 0.874581,-0.677947 z"
       inkscape:connector-curvature="0"
       style="fill:currentColor;stroke-width:0.26458332" />
  </g>
</svg>
